<svg width="156" height="51" viewBox="0 0 156 51" fill="none" xmlns="http://www.w3.org/2000/svg">
<rect x="0.5" y="1.24316" width="154.479" height="48.5139" rx="7.5" stroke="white"/>
<path d="M32.7799 24.5987C32.7451 20.832 35.9431 18.9995 36.0893 18.9142C34.2782 16.3396 31.4709 15.9878 30.4844 15.9598C28.1267 15.7178 25.8397 17.3353 24.6386 17.3353C23.4136 17.3353 21.5641 15.9831 19.5708 16.0229C17.0057 16.0614 14.606 17.5094 13.2899 19.758C10.5737 24.3427 12.5994 31.0802 15.2017 34.786C16.5034 36.601 18.0245 38.6275 20.0155 38.5562C21.9633 38.4779 22.6908 37.3454 25.0414 37.3454C27.3704 37.3454 28.0536 38.5562 30.0841 38.5106C32.1745 38.4779 33.4907 36.6875 34.7468 34.8562C36.2511 32.7759 36.8553 30.7272 36.8792 30.622C36.8301 30.6057 32.8194 29.1133 32.7799 24.5987Z" fill="white"/>
<path d="M28.9442 13.5219C29.9918 12.2445 30.7086 10.5067 30.5096 8.74316C28.9933 8.80861 27.0971 9.76576 26.0051 11.0151C25.039 12.116 24.176 13.9204 24.3989 15.6173C26.1022 15.7412 27.851 14.7794 28.9442 13.5219Z" fill="white"/>
<path d="M55.6525 12.7786C55.6525 14.1541 55.2294 15.1896 54.3843 15.8849C53.6016 16.5265 52.4892 16.8479 51.0485 16.8479C50.3341 16.8479 49.7228 16.8175 49.2109 16.7568V9.24097C49.8786 9.13579 50.5978 9.08203 51.3745 9.08203C52.7469 9.08203 53.7814 9.37303 54.479 9.95504C55.2605 10.613 55.6525 11.5538 55.6525 12.7786ZM54.328 12.8125C54.328 11.9208 54.0858 11.2371 53.6016 10.7603C53.1173 10.2846 52.4101 10.0462 51.4788 10.0462C51.0832 10.0462 50.7464 10.0719 50.4671 10.1257V15.8393C50.6217 15.8627 50.9046 15.8732 51.3158 15.8732C52.2771 15.8732 53.019 15.6126 53.5417 15.0914C54.0643 14.5702 54.328 13.8105 54.328 12.8125Z" fill="white"/>
<path d="M62.6592 13.9804C62.6592 14.8277 62.411 15.5219 61.9148 16.0665C61.3946 16.6263 60.7054 16.9056 59.8447 16.9056C59.0153 16.9056 58.3548 16.638 57.8622 16.1004C57.3707 15.5639 57.125 14.8873 57.125 14.0715C57.125 13.2184 57.3779 12.5184 57.8861 11.9749C58.3944 11.4315 59.0776 11.1592 59.9382 11.1592C60.7677 11.1592 61.4341 11.4268 61.9388 11.9632C62.4182 12.4845 62.6592 13.1576 62.6592 13.9804ZM61.3562 14.0201C61.3562 13.5117 61.2436 13.0758 61.0194 12.7124C60.7557 12.2729 60.3805 12.0532 59.8927 12.0532C59.388 12.0532 59.0045 12.2729 58.7408 12.7124C58.5154 13.0758 58.404 13.5187 58.404 14.0423C58.404 14.5507 58.5166 14.9866 58.7408 15.3501C59.0129 15.7895 59.3916 16.0092 59.8807 16.0092C60.3602 16.0092 60.7365 15.786 61.0074 15.3384C61.24 14.9679 61.3562 14.5285 61.3562 14.0201Z" fill="white"/>
<path d="M72.0852 11.2695L70.3172 16.7787H69.1665L68.4341 14.3864C68.2483 13.7892 68.0973 13.1955 67.9798 12.6065H67.9571C67.848 13.2119 67.6969 13.8044 67.5028 14.3864L66.7248 16.7787H65.561L63.8984 11.2695H65.1894L65.8283 13.8885C65.9829 14.5079 66.1099 15.0981 66.2118 15.6568H66.2346C66.3281 15.1963 66.4827 14.6096 66.7009 13.9002L67.5028 11.2707H68.5264L69.2947 13.8441C69.4805 14.4717 69.6316 15.0759 69.7478 15.6579H69.7826C69.8677 15.0911 69.996 14.4869 70.1662 13.8441L70.8518 11.2707H72.0852V11.2695Z" fill="white"/>
<path d="M78.5934 16.7792H77.3372V13.6237C77.3372 12.6514 76.9585 12.1652 76.1985 12.1652C75.8257 12.1652 75.5249 12.2984 75.2912 12.5661C75.0598 12.8337 74.9424 13.1492 74.9424 13.5104V16.778H73.6862V12.8442C73.6862 12.3604 73.6706 11.8356 73.6406 11.2677H74.7446L74.8033 12.129H74.8381C74.9843 11.8613 75.2025 11.6405 75.4889 11.464C75.8293 11.2583 76.2105 11.1543 76.6276 11.1543C77.155 11.1543 77.5937 11.3202 77.9426 11.6533C78.3765 12.0612 78.5934 12.6701 78.5934 13.4788V16.7792Z" fill="white"/>
<path d="M82.0753 16.7802H80.8203V8.74316H82.0753V16.7802Z" fill="white"/>
<path d="M89.456 13.9804C89.456 14.8277 89.2079 15.5219 88.7117 16.0665C88.1915 16.6263 87.501 16.9056 86.6416 16.9056C85.8109 16.9056 85.1505 16.638 84.659 16.1004C84.1676 15.5639 83.9219 14.8873 83.9219 14.0715C83.9219 13.2184 84.1748 12.5184 84.683 11.9749C85.1912 11.4315 85.8745 11.1592 86.7339 11.1592C87.5646 11.1592 88.2298 11.4268 88.7356 11.9632C89.2151 12.4845 89.456 13.1576 89.456 13.9804ZM88.1519 14.0201C88.1519 13.5117 88.0392 13.0758 87.8151 12.7124C87.5526 12.2729 87.1762 12.0532 86.6895 12.0532C86.1837 12.0532 85.8002 12.2729 85.5377 12.7124C85.3123 13.0758 85.2008 13.5187 85.2008 14.0423C85.2008 14.5507 85.3135 14.9866 85.5377 15.3501C85.8097 15.7895 86.1885 16.0092 86.6776 16.0092C87.157 16.0092 87.5322 15.786 87.8031 15.3384C88.0368 14.9679 88.1519 14.5285 88.1519 14.0201Z" fill="white"/>
<path d="M95.5294 16.7805H94.4015L94.308 16.1459H94.2732C93.8872 16.652 93.3371 16.9056 92.6227 16.9056C92.0893 16.9056 91.6578 16.7385 91.3329 16.4066C91.0381 16.105 90.8906 15.7299 90.8906 15.2846C90.8906 14.6115 91.1783 14.0984 91.7572 13.7431C92.335 13.3879 93.1477 13.2137 94.1941 13.2219V13.1191C94.1941 12.3933 93.8033 12.031 93.0206 12.031C92.4632 12.031 91.9718 12.1678 91.5475 12.4389L91.2922 11.6348C91.8172 11.3181 92.4656 11.1592 93.2304 11.1592C94.7071 11.1592 95.4479 11.9188 95.4479 13.4381V15.4669C95.4479 16.0174 95.4754 16.4556 95.5294 16.7805ZM94.2253 14.8873V14.0376C92.8396 14.0143 92.1468 14.3847 92.1468 15.1479C92.1468 15.4354 92.2259 15.6504 92.3877 15.7942C92.5496 15.9379 92.7557 16.0092 93.0014 16.0092C93.2771 16.0092 93.5348 15.9239 93.7698 15.7544C94.0059 15.5838 94.1509 15.3676 94.2049 15.1023C94.2181 15.0427 94.2253 14.9702 94.2253 14.8873Z" fill="white"/>
<path d="M102.675 16.7802H101.56L101.502 15.8955H101.467C101.111 16.5686 100.504 16.9052 99.6522 16.9052C98.9713 16.9052 98.4044 16.6446 97.9549 16.1234C97.5054 15.6022 97.2812 14.9255 97.2812 14.0946C97.2812 13.2028 97.5246 12.4806 98.0136 11.929C98.4871 11.4148 99.0672 11.1577 99.7576 11.1577C100.516 11.1577 101.047 11.4066 101.349 11.9056H101.373V8.74316H102.631V15.296C102.631 15.8324 102.645 16.3267 102.675 16.7802ZM101.373 14.4568V13.5383C101.373 13.3793 101.361 13.2508 101.339 13.1526C101.268 12.8581 101.116 12.6103 100.884 12.4105C100.651 12.2106 100.369 12.1101 100.044 12.1101C99.5754 12.1101 99.2087 12.2913 98.939 12.6547C98.6717 13.0182 98.5362 13.4822 98.5362 14.049C98.5362 14.5936 98.6645 15.0353 98.9222 15.3754C99.1943 15.7377 99.5611 15.9189 100.02 15.9189C100.432 15.9189 100.762 15.7681 101.013 15.4654C101.255 15.1861 101.373 14.8495 101.373 14.4568Z" fill="white"/>
<path d="M113.425 13.9804C113.425 14.8277 113.177 15.5219 112.68 16.0665C112.16 16.6263 111.472 16.9056 110.61 16.9056C109.782 16.9056 109.122 16.638 108.628 16.1004C108.136 15.5639 107.891 14.8873 107.891 14.0715C107.891 13.2184 108.144 12.5184 108.652 11.9749C109.16 11.4315 109.843 11.1592 110.705 11.1592C111.533 11.1592 112.201 11.4268 112.704 11.9632C113.184 12.4845 113.425 13.1576 113.425 13.9804ZM112.123 14.0201C112.123 13.5117 112.01 13.0758 111.786 12.7124C111.521 12.2729 111.147 12.0532 110.658 12.0532C110.155 12.0532 109.771 12.2729 109.506 12.7124C109.281 13.0758 109.17 13.5187 109.17 14.0423C109.17 14.5507 109.282 14.9866 109.506 15.3501C109.778 15.7895 110.157 16.0092 110.646 16.0092C111.126 16.0092 111.503 15.786 111.774 15.3384C112.006 14.9679 112.123 14.5285 112.123 14.0201Z" fill="white"/>
<path d="M120.178 16.7792H118.923V13.6237C118.923 12.6514 118.544 12.1652 117.783 12.1652C117.41 12.1652 117.11 12.2984 116.877 12.5661C116.645 12.8337 116.528 13.1492 116.528 13.5104V16.778H115.271V12.8442C115.271 12.3604 115.257 11.8356 115.227 11.2677H116.329L116.388 12.129H116.423C116.57 11.8613 116.788 11.6405 117.074 11.464C117.415 11.2583 117.795 11.1543 118.214 11.1543C118.74 11.1543 119.178 11.3202 119.527 11.6533C119.962 12.0612 120.178 12.6701 120.178 13.4788V16.7792Z" fill="white"/>
<path d="M128.629 12.1889H127.246V14.8651C127.246 15.5453 127.491 15.8854 127.978 15.8854C128.203 15.8854 128.39 15.8667 128.538 15.8281L128.57 16.7572C128.322 16.8484 127.996 16.894 127.594 16.894C127.098 16.894 126.712 16.7467 126.433 16.4522C126.152 16.1577 126.013 15.6622 126.013 14.9668V12.1889H125.188V11.2714H126.013V10.2617L127.244 9.89941V11.2703H128.628V12.1889H128.629Z" fill="white"/>
<path d="M135.29 16.7802H134.033V13.6481C134.033 12.6606 133.654 12.1662 132.895 12.1662C132.313 12.1662 131.915 12.4526 131.697 13.0252C131.659 13.1456 131.638 13.2928 131.638 13.4658V16.779H130.383V8.74316H131.638V12.0634H131.662C132.057 11.4592 132.624 11.1577 133.359 11.1577C133.879 11.1577 134.31 11.3236 134.651 11.6567C135.077 12.0716 135.29 12.6886 135.29 13.5044V16.7802Z" fill="white"/>
<path d="M142.156 13.7661C142.156 13.9858 142.14 14.1705 142.11 14.3212H138.342C138.359 14.8658 138.539 15.2807 138.888 15.5682C139.206 15.8253 139.618 15.9539 140.121 15.9539C140.678 15.9539 141.187 15.8674 141.645 15.6932L141.841 16.544C141.305 16.7708 140.675 16.8841 139.945 16.8841C139.07 16.8841 138.381 16.6329 137.882 16.1303C137.381 15.6278 137.133 14.9535 137.133 14.1073C137.133 13.2764 137.364 12.5846 137.83 12.0329C138.317 11.4439 138.975 11.1494 139.806 11.1494C140.618 11.1494 141.236 11.4439 141.653 12.0329C141.99 12.5004 142.156 13.0789 142.156 13.7661ZM140.958 13.4494C140.967 13.0859 140.885 12.7727 140.714 12.5086C140.496 12.1685 140.164 11.9979 139.715 11.9979C139.305 11.9979 138.97 12.1638 138.715 12.4969C138.506 12.7622 138.383 13.0789 138.342 13.4494H140.958Z" fill="white"/>
<path d="M61.3496 37.6866H58.6275L57.1364 33.1182H51.9534L50.533 37.6866H47.8828L53.0178 22.1338H56.1894L61.3496 37.6866ZM56.6869 31.2016L55.3384 27.1404C55.1958 26.7255 54.9285 25.7485 54.5341 24.2105H54.4862C54.3291 24.872 54.0762 25.849 53.7286 27.1404L52.4041 31.2016H56.6869Z" fill="white"/>
<path d="M74.5611 31.9418C74.5611 33.8491 74.0325 35.3567 72.9753 36.4635C72.0283 37.4487 70.8525 37.9407 69.4488 37.9407C67.9337 37.9407 66.8454 37.4101 66.1825 36.3489H66.1346V42.2566H63.5791V30.1643C63.5791 28.9652 63.5467 27.7346 63.4844 26.4724H65.7318L65.8745 28.25H65.9224C66.7747 26.9107 68.068 26.2422 69.8036 26.2422C71.1605 26.2422 72.2932 26.7646 73.1994 27.8106C74.108 28.8577 74.5611 30.2344 74.5611 31.9418ZM71.9576 32.033C71.9576 30.9415 71.7059 30.0416 71.2001 29.3333C70.6475 28.5947 69.9055 28.2254 68.9754 28.2254C68.3449 28.2254 67.7719 28.4311 67.2601 28.8367C66.7471 29.2457 66.4115 29.7798 66.2544 30.4413C66.1753 30.7498 66.1358 31.0022 66.1358 31.2009V33.0708C66.1358 33.8865 66.3923 34.5749 66.9053 35.137C67.4183 35.6992 68.0848 35.9796 68.9047 35.9796C69.8672 35.9796 70.6163 35.6173 71.1521 34.8951C71.6891 34.1717 71.9576 33.218 71.9576 32.033Z" fill="white"/>
<path d="M87.7708 31.9418C87.7708 33.8491 87.2422 35.3567 86.1838 36.4635C85.2381 37.4487 84.0622 37.9407 82.6586 37.9407C81.1435 37.9407 80.0551 37.4101 79.3935 36.3489H79.3455V42.2566H76.79V30.1643C76.79 28.9652 76.7576 27.7346 76.6953 26.4724H78.9428L79.0854 28.25H79.1334C79.9844 26.9107 81.2777 26.2422 83.0146 26.2422C84.3703 26.2422 85.503 26.7646 86.4115 27.8106C87.3165 28.8577 87.7708 30.2344 87.7708 31.9418ZM85.1674 32.033C85.1674 30.9415 84.9144 30.0416 84.4086 29.3333C83.856 28.5947 83.1165 28.2254 82.1851 28.2254C81.5534 28.2254 80.9817 28.4311 80.4687 28.8367C79.9556 29.2457 79.6212 29.7798 79.4642 30.4413C79.3863 30.7498 79.3455 31.0022 79.3455 31.2009V33.0708C79.3455 33.8865 79.602 34.5749 80.1127 35.137C80.6257 35.698 81.2921 35.9796 82.1144 35.9796C83.0769 35.9796 83.8261 35.6173 84.3619 34.8951C84.8989 34.1717 85.1674 33.218 85.1674 32.033Z" fill="white"/>
<path d="M102.576 33.3245C102.576 34.6474 102.105 35.7238 101.159 36.5547C100.12 37.4628 98.6729 37.9162 96.8138 37.9162C95.0974 37.9162 93.7213 37.5936 92.6797 36.9474L93.2718 34.8706C94.3938 35.5321 95.6248 35.864 96.9661 35.864C97.9286 35.864 98.6777 35.6513 99.2159 35.2282C99.7517 34.8052 100.019 34.2372 100.019 33.529C100.019 32.8979 99.7984 32.3661 99.3561 31.9349C98.9162 31.5037 98.1815 31.1028 97.1554 30.7323C94.3626 29.7167 92.9674 28.229 92.9674 26.2726C92.9674 24.9941 93.4564 23.9458 94.4357 23.1301C95.4114 22.3131 96.7131 21.9053 98.3409 21.9053C99.7925 21.9053 100.998 22.1519 101.961 22.6439L101.322 24.675C100.423 24.1982 99.4065 23.9598 98.269 23.9598C97.37 23.9598 96.6676 24.176 96.1642 24.6061C95.7386 24.9906 95.5253 25.4592 95.5253 26.0144C95.5253 26.6291 95.7686 27.1375 96.2576 27.5371C96.6832 27.9065 97.4563 28.3061 98.5782 28.7374C99.9507 29.2761 100.959 29.9061 101.607 30.6283C102.253 31.3482 102.576 32.2493 102.576 33.3245Z" fill="white"/>
<path d="M111.021 28.341H108.204V33.7858C108.204 35.1707 108.7 35.8626 109.695 35.8626C110.151 35.8626 110.53 35.824 110.83 35.7469L110.901 37.639C110.397 37.8225 109.734 37.9148 108.913 37.9148C107.904 37.9148 107.115 37.6144 106.546 37.0149C105.979 36.4142 105.694 35.4068 105.694 33.9915V28.3386H104.016V26.4687H105.694V24.4154L108.204 23.6768V26.4687H111.021V28.341Z" fill="white"/>
<path d="M123.735 31.9863C123.735 33.7101 123.229 35.1253 122.22 36.2321C121.161 37.3715 119.757 37.9395 118.005 37.9395C116.318 37.9395 114.974 37.3937 113.972 36.3022C112.97 35.2106 112.469 33.8328 112.469 32.1721C112.469 30.4342 112.984 29.0108 114.019 27.9041C115.051 26.7961 116.443 26.2422 118.195 26.2422C119.882 26.2422 121.24 26.788 122.265 27.8807C123.246 28.9407 123.735 30.3092 123.735 31.9863ZM121.083 32.0669C121.083 31.0326 120.857 30.1456 120.398 29.4058C119.862 28.5106 119.096 28.0642 118.104 28.0642C117.076 28.0642 116.296 28.5118 115.76 29.4058C115.301 30.1467 115.075 31.0478 115.075 32.1136C115.075 33.1479 115.301 34.0349 115.76 34.7736C116.313 35.6688 117.085 36.1152 118.081 36.1152C119.057 36.1152 119.822 35.6594 120.375 34.7502C120.846 33.9964 121.083 33.1 121.083 32.0669Z" fill="white"/>
<path d="M132.037 28.6637C131.784 28.6181 131.514 28.5947 131.231 28.5947C130.332 28.5947 129.637 28.9255 129.148 29.5881C128.722 30.1725 128.509 30.9111 128.509 31.8028V37.6871H125.955L125.979 30.0042C125.979 28.7116 125.946 27.5347 125.883 26.4736H128.109L128.202 28.6193H128.273C128.543 27.8818 128.968 27.2882 129.551 26.8429C130.12 26.442 130.735 26.2422 131.398 26.2422C131.634 26.2422 131.847 26.2585 132.037 26.2878V28.6637Z" fill="white"/>
<path d="M143.48 31.5487C143.48 31.9952 143.45 32.3715 143.386 32.6788H135.72C135.75 33.7867 136.12 34.634 136.832 35.2184C137.478 35.7408 138.314 36.0026 139.34 36.0026C140.475 36.0026 141.51 35.8261 142.442 35.472L142.842 37.2016C141.754 37.6644 140.469 37.8947 138.986 37.8947C137.203 37.8947 135.803 37.3828 134.784 36.3602C133.767 35.3376 133.258 33.9644 133.258 32.2417C133.258 30.5507 133.731 29.1424 134.679 28.0193C135.672 26.8202 137.013 26.2207 138.701 26.2207C140.359 26.2207 141.614 26.8202 142.466 28.0193C143.141 28.9718 143.48 30.1498 143.48 31.5487ZM141.043 30.9024C141.06 30.1638 140.893 29.5257 140.547 28.987C140.104 28.2939 139.425 27.948 138.51 27.948C137.675 27.948 136.995 28.2858 136.476 28.9636C136.051 29.5024 135.798 30.1486 135.72 30.9013H141.043V30.9024Z" fill="white"/>
</svg>
