<svg width="170" height="53" viewBox="0 0 170 53" fill="none" xmlns="http://www.w3.org/2000/svg">
<rect x="0.625" y="-0.625" width="134.286" height="40.4414" rx="7.5" transform="matrix(1.25 0 0 -1.25 0.734375 50.9951)" stroke="white"/>
<path d="M16.4457 11.9343C16.0941 12.2937 15.8906 12.8532 15.8906 13.5778V39.4232C15.8906 40.1477 16.0941 40.7073 16.4457 41.0666L16.5325 41.1455L31.3663 26.6685V26.3266L16.5325 11.8496L16.4457 11.9343Z" fill="url(#paint0_linear_148_1326)"/>
<path d="M36.2907 31.4961L31.3516 26.668V26.3261L36.2967 21.498L36.4074 21.5608L42.2637 24.8142C43.935 25.7374 43.935 27.2567 42.2637 28.1858L36.4074 31.4333L36.2907 31.4961Z" fill="url(#paint1_linear_148_1326)"/>
<path d="M36.4139 31.4342L31.3581 26.498L16.4375 41.0671C16.9926 41.6368 17.8978 41.7055 18.9273 41.1358L36.4139 31.4342Z" fill="url(#paint2_linear_148_1326)"/>
<path d="M36.4139 21.5609L18.9273 11.8594C17.8978 11.2955 16.9926 11.3641 16.4375 11.9339L31.3581 26.4971L36.4139 21.5609Z" fill="url(#paint3_linear_148_1326)"/>
<path d="M61.1426 14.5483C61.1426 15.5241 60.8434 16.3057 60.2538 16.8886C59.576 17.5796 58.6933 17.9272 57.6115 17.9272C56.5776 17.9272 55.6948 17.5737 54.9706 16.8769C54.2449 16.1698 53.8828 15.3021 53.8828 14.2634C53.8828 13.2248 54.2449 12.357 54.9706 11.6558C55.6948 10.9531 56.5776 10.5996 57.6115 10.5996C58.1262 10.5996 58.6169 10.7033 59.0853 10.8962C59.5521 11.0905 59.9321 11.3534 60.2075 11.6777L59.582 12.2942C59.1017 11.7405 58.4479 11.4674 57.6115 11.4674C56.8574 11.4674 56.2035 11.7245 55.6484 12.2431C55.0993 12.7631 54.8239 13.4366 54.8239 14.2634C54.8239 15.0903 55.0993 15.7696 55.6484 16.2896C56.2035 16.8024 56.8574 17.0653 57.6115 17.0653C58.412 17.0653 59.0853 16.8024 59.6164 16.2838C59.9666 15.9405 60.1656 15.4672 60.2179 14.8624H57.6115V14.018H61.0887C61.1306 14.2006 61.1426 14.3774 61.1426 14.5483Z" fill="white" stroke="white" stroke-width="0.143838" stroke-miterlimit="10"/>
<path d="M66.6597 11.6202H63.3934V13.8407H66.3381V14.6851H63.3934V16.9056H66.6597V17.766H62.4688V10.7598H66.6597V11.6202Z" fill="white" stroke="white" stroke-width="0.143838" stroke-miterlimit="10"/>
<path d="M70.5453 17.766H69.6207V11.6202H67.6172V10.7598H72.5503V11.6202H70.5453V17.766Z" fill="white" stroke="white" stroke-width="0.143838" stroke-miterlimit="10"/>
<path d="M76.1406 17.765V10.7588H77.0638V17.765H76.1406Z" fill="white" stroke="white" stroke-width="0.143838" stroke-miterlimit="10"/>
<path d="M81.1469 17.766H80.2297V11.6202H78.2188V10.7598H83.1579V11.6202H81.1469V17.766Z" fill="white" stroke="white" stroke-width="0.143838" stroke-miterlimit="10"/>
<path d="M92.4731 16.8652C91.7654 17.5737 90.8886 17.9272 89.8427 17.9272C88.7908 17.9272 87.914 17.5737 87.2063 16.8652C86.5001 16.1581 86.1484 15.2904 86.1484 14.2634C86.1484 13.2364 86.5001 12.3687 87.2063 11.6616C87.914 10.9531 88.7908 10.5996 89.8427 10.5996C90.8826 10.5996 91.7594 10.9531 92.4671 11.6675C93.1793 12.3804 93.5309 13.2423 93.5309 14.2634C93.5309 15.2904 93.1793 16.1581 92.4731 16.8652ZM87.8901 16.2779C88.4227 16.8024 89.0706 17.0653 89.8427 17.0653C90.6088 17.0653 91.2626 16.8024 91.7893 16.2779C92.3205 15.7535 92.5898 15.08 92.5898 14.2634C92.5898 13.4468 92.3205 12.7734 91.7893 12.2489C91.2626 11.7245 90.6088 11.4615 89.8427 11.4615C89.0706 11.4615 88.4227 11.7245 87.8901 12.2489C87.3589 12.7734 87.0896 13.4468 87.0896 14.2634C87.0896 15.08 87.3589 15.7535 87.8901 16.2779Z" fill="white" stroke="white" stroke-width="0.143838" stroke-miterlimit="10"/>
<path d="M94.8594 17.766V10.7598H95.9816L99.4708 16.2087H99.5112L99.4708 14.8618V10.7598H100.394V17.766H99.4304L95.7766 12.0482H95.7362L95.7766 13.401V17.766H94.8594Z" fill="white" stroke="white" stroke-width="0.143838" stroke-miterlimit="10"/>
<path d="M85.9483 27.9974C83.1369 27.9974 80.8401 30.0864 80.8401 32.9687C80.8401 35.8275 83.1369 37.9385 85.9483 37.9385C88.7657 37.9385 91.0625 35.8275 91.0625 32.9687C91.0625 30.0864 88.7657 27.9974 85.9483 27.9974ZM85.9483 35.9809C84.4057 35.9809 83.0785 34.7377 83.0785 32.9687C83.0785 31.1762 84.4057 29.9549 85.9483 29.9549C87.4909 29.9549 88.8241 31.1762 88.8241 32.9687C88.8241 34.7377 87.4909 35.9809 85.9483 35.9809ZM74.8027 27.9974C71.9853 27.9974 69.6946 30.0864 69.6946 32.9687C69.6946 35.8275 71.9853 37.9385 74.8027 37.9385C77.6187 37.9385 79.9109 35.8275 79.9109 32.9687C79.9109 30.0864 77.6187 27.9974 74.8027 27.9974ZM74.8027 35.9809C73.2586 35.9809 71.927 34.7377 71.927 32.9687C71.927 31.1762 73.2586 29.9549 74.8027 29.9549C76.3454 29.9549 77.6726 31.1762 77.6726 32.9687C77.6726 34.7377 76.3454 35.9809 74.8027 35.9809ZM61.54 29.5211V31.6334H66.7065C66.5554 32.8138 66.1514 33.6816 65.532 34.2863C64.7779 35.0168 63.6033 35.8275 61.54 35.8275C58.3605 35.8275 55.8707 33.3222 55.8707 30.2179C55.8707 27.1136 58.3605 24.6082 61.54 24.6082C63.2592 24.6082 64.5101 25.2641 65.4332 26.1144L66.9579 24.6257C65.6667 23.422 63.949 22.4973 61.54 22.4973C57.1799 22.4973 53.5156 25.961 53.5156 30.2179C53.5156 34.4748 57.1799 37.9385 61.54 37.9385C63.8966 37.9385 65.6667 37.1847 67.0582 35.7706C68.4841 34.3784 68.9285 32.4208 68.9285 30.8402C68.9285 30.3494 68.8866 29.898 68.8118 29.5211H61.54ZM115.773 31.1587C115.353 30.047 114.055 27.9974 111.413 27.9974C108.795 27.9974 106.614 30.0119 106.614 32.9687C106.614 35.753 108.772 37.9385 111.664 37.9385C114.003 37.9385 115.353 36.5463 115.908 35.7355L114.172 34.6063C113.593 35.4331 112.804 35.9809 111.664 35.9809C110.532 35.9809 109.719 35.474 109.199 34.4748L116.008 31.724L115.773 31.1587ZM108.83 32.8138C108.772 30.8972 110.355 29.9155 111.489 29.9155C112.378 29.9155 113.132 30.3494 113.384 30.9702L108.83 32.8138ZM103.296 37.6361H105.534V23.0276H103.296V37.6361ZM99.63 29.1047H99.5552C99.0524 28.5233 98.0934 27.9974 96.8784 27.9974C94.3288 27.9974 91.9976 30.1828 91.9976 32.9847C91.9976 35.7706 94.3288 37.9385 96.8784 37.9385C98.0934 37.9385 99.0524 37.4082 99.5552 36.8092H99.63V37.5221C99.63 39.4227 98.5901 40.4438 96.9128 40.4438C95.5452 40.4438 94.6969 39.4797 94.3467 38.6689L92.4001 39.4621C92.9612 40.7798 94.447 42.4014 96.9128 42.4014C99.5372 42.4014 101.752 40.8938 101.752 37.2256V28.2998H99.63V29.1047ZM97.0699 35.9809C95.5273 35.9809 94.236 34.7202 94.236 32.9847C94.236 31.2332 95.5273 29.9549 97.0699 29.9549C98.5901 29.9549 99.7886 31.2332 99.7886 32.9847C99.7886 34.7202 98.5901 35.9809 97.0699 35.9809ZM126.253 23.0276H120.899V37.6361H123.132V32.1009H126.253C128.732 32.1009 131.163 30.3494 131.163 27.5635C131.163 24.7791 128.726 23.0276 126.253 23.0276ZM126.311 30.0689H123.132V25.0596H126.311C127.978 25.0596 128.93 26.4109 128.93 27.5635C128.93 28.6942 127.978 30.0689 126.311 30.0689ZM140.111 27.9696C138.498 27.9696 136.821 28.665 136.131 30.2062L138.112 31.017C138.538 30.2062 139.322 29.9432 140.151 29.9432C141.309 29.9432 142.484 30.6225 142.502 31.8219V31.9753C142.098 31.7474 141.233 31.4099 140.169 31.4099C138.036 31.4099 135.862 32.5567 135.862 34.6968C135.862 36.6544 137.609 37.9151 139.574 37.9151C141.076 37.9151 141.905 37.2533 142.426 36.4835H142.502V37.6127H144.658V32.0089C144.658 29.4188 142.677 27.9696 140.111 27.9696ZM139.842 35.9751C139.112 35.9751 138.094 35.6216 138.094 34.7377C138.094 33.6071 139.363 33.1732 140.461 33.1732C141.444 33.1732 141.905 33.385 142.502 33.664C142.327 35.0168 141.134 35.9751 139.842 35.9751ZM152.513 28.2896L149.947 34.6223H149.871L147.218 28.2896H144.811L148.797 37.1394L146.522 42.0639H148.855L154.997 28.2896H152.513ZM132.39 37.6361H134.629V23.0276H132.39V37.6361Z" fill="white"/>
<defs>
<linearGradient id="paint0_linear_148_1326" x1="30.0493" y1="39.6923" x2="10.4416" y2="19.6096" gradientUnits="userSpaceOnUse">
<stop stop-color="#00A0FF"/>
<stop offset="0.0066" stop-color="#00A1FF"/>
<stop offset="0.2601" stop-color="#00BEFF"/>
<stop offset="0.5122" stop-color="#00D2FF"/>
<stop offset="0.7604" stop-color="#00DFFF"/>
<stop offset="1" stop-color="#00E3FF"/>
</linearGradient>
<linearGradient id="paint1_linear_148_1326" x1="44.44" y1="26.4954" x2="15.4764" y2="26.4954" gradientUnits="userSpaceOnUse">
<stop stop-color="#FFE000"/>
<stop offset="0.4087" stop-color="#FFBD00"/>
<stop offset="0.7754" stop-color="#FFA500"/>
<stop offset="1" stop-color="#FF9C00"/>
</linearGradient>
<linearGradient id="paint2_linear_148_1326" x1="33.6647" y1="23.8146" x2="7.07515" y2="-3.41923" gradientUnits="userSpaceOnUse">
<stop stop-color="#FF3A44"/>
<stop offset="1" stop-color="#C31162"/>
</linearGradient>
<linearGradient id="paint3_linear_148_1326" x1="12.6817" y1="49.6648" x2="24.5551" y2="37.5037" gradientUnits="userSpaceOnUse">
<stop stop-color="#32A071"/>
<stop offset="0.0685" stop-color="#2DA771"/>
<stop offset="0.4762" stop-color="#15CF74"/>
<stop offset="0.8009" stop-color="#06E775"/>
<stop offset="1" stop-color="#00F076"/>
</linearGradient>
</defs>
</svg>
