<svg width="40" height="40" viewBox="0 0 40 40" fill="none" xmlns="http://www.w3.org/2000/svg">
<rect width="40" height="40" rx="8" fill="#F7F7FF"/>
<path d="M20.0421 10.85C19.4657 10.85 18.9984 11.3173 18.9984 11.8937V28.1063C18.9984 28.6827 19.4657 29.15 20.0421 29.15C20.6185 29.15 21.0858 28.6827 21.0858 28.1063V11.8937C21.0858 11.3173 20.6185 10.85 20.0421 10.85Z" fill="#ACACAC" stroke="#ACACAC" stroke-width="0.3" stroke-linecap="round"/>
<path d="M13 18.85C12.3649 18.85 11.85 19.3649 11.85 20C11.85 20.6351 12.3649 21.15 13 21.15H27.0872C27.7223 21.15 28.2372 20.6351 28.2372 20C28.2372 19.3649 27.7223 18.85 27.0872 18.85H13Z" fill="#ACACAC" stroke="#ACACAC" stroke-width="0.3" stroke-linecap="round"/>
</svg>
