<svg width="145" height="51" viewBox="0 0 145 51" fill="none" xmlns="http://www.w3.org/2000/svg">
<path d="M30.0656 39.8159C26.4796 42.2737 24.5066 43.7079 21.1069 46.7857C19.0247 44.5979 17.6555 43.2188 14.7031 40.3819C20.5364 33.778 23.9436 30.5729 30.0656 25.0194C27.9468 22.9972 26.5406 21.5943 23.6153 18.6143C20.7003 22.0111 18.991 23.7577 15.7251 26.5045" stroke="white" stroke-width="5.57495"/>
<path d="M10.2801 36.1737C6.67388 32.8011 3.5 28.5739 3.5 22.152C3.5 11.5746 12.0746 3 22.652 3C33.2294 3 41.2704 11.4959 41.2704 21.7609C41.2704 27.6687 38.655 33.1769 32.8358 37.6213" stroke="white" stroke-width="5.57495"/>
<path d="M53.8068 35.4316V32.1747L65.46 17.7726V17.6829H54.5538V14.0674H70.5993V17.6829L59.3346 31.6668V31.7564H70.8085V35.4316H53.8068ZM73.0189 35.4316V20.1032H77.0826V35.4316H73.0189ZM73.0189 17.7128V14.0674H77.0826V17.7128H73.0189ZM79.701 40.4515V20.1032H83.6153V22.0155H83.705C84.8404 20.4618 86.3444 19.6849 88.2168 19.6849C90.2288 19.6849 91.8423 20.4319 93.0574 21.9259C94.2725 23.4199 94.8801 25.372 94.8801 27.7824C94.8801 30.2524 94.2725 32.2245 93.0574 33.6986C91.8423 35.1528 90.2387 35.8798 88.2467 35.8798C86.2547 35.8798 84.7806 35.1528 83.8245 33.6986H83.7647V40.4515H79.701ZM87.3802 32.5034C88.416 32.5034 89.2328 32.095 89.8304 31.2783C90.4479 30.4616 90.7566 29.3361 90.7566 27.9019C90.7566 26.368 90.4678 25.1629 89.8901 24.2864C89.3124 23.4099 88.426 22.9717 87.2308 22.9717C86.0157 22.9717 85.1193 23.4298 84.5416 24.3462C83.9639 25.2426 83.6751 26.4278 83.6751 27.9019C83.6751 29.3162 83.9938 30.4417 84.6312 31.2783C85.2687 32.095 86.185 32.5034 87.3802 32.5034ZM106.871 35.4316L102.568 28.4397L100.805 30.2624V35.4316H96.7712V14.0674H100.805V25.8999L106.243 20.1032H111.114L105.466 25.9298L111.801 35.4316H106.871ZM125.06 33.5791C123.566 35.1129 121.644 35.8798 119.293 35.8798C116.942 35.8798 115.02 35.1129 113.526 33.5791C112.032 32.0253 111.285 30.0931 111.285 27.7824C111.285 25.4716 112.032 23.5494 113.526 22.0155C115.02 20.4618 116.942 19.6849 119.293 19.6849C121.644 19.6849 123.566 20.4618 125.06 22.0155C126.554 23.5494 127.301 25.4716 127.301 27.7824C127.301 30.0931 126.554 32.0253 125.06 33.5791ZM119.293 32.7723C120.508 32.7723 121.454 32.3241 122.132 31.4277C122.829 30.5114 123.177 29.2963 123.177 27.7824C123.177 26.2684 122.829 25.0533 122.132 24.137C121.454 23.2207 120.508 22.7625 119.293 22.7625C118.058 22.7625 117.102 23.2207 116.425 24.137C115.747 25.0334 115.409 26.2485 115.409 27.7824C115.409 29.2963 115.747 30.5114 116.425 31.4277C117.102 32.3241 118.058 32.7723 119.293 32.7723ZM134.927 35.8798C132.995 35.8798 131.431 35.1528 130.236 33.6986C129.04 32.2245 128.443 30.2524 128.443 27.7824C128.443 25.392 129.05 23.4498 130.265 21.9558C131.501 20.4418 133.074 19.6849 134.987 19.6849C136.899 19.6849 138.343 20.4418 139.319 21.9558H139.409V14.0674H143.472V35.4316H139.558V33.4297H139.498C138.502 35.0631 136.979 35.8798 134.927 35.8798ZM135.823 32.4735C137.018 32.4735 137.925 32.0652 138.542 31.2484C139.18 30.4317 139.498 29.3062 139.498 27.872C139.498 24.6051 138.313 22.9717 135.943 22.9717C134.847 22.9717 134.01 23.4099 133.433 24.2864C132.855 25.1629 132.566 26.3282 132.566 27.7824C132.566 29.2764 132.845 30.4317 133.403 31.2484C133.981 32.0652 134.787 32.4735 135.823 32.4735Z" fill="white"/>
</svg>
