<svg width="31" height="36" viewBox="0 0 31 36" fill="none" xmlns="http://www.w3.org/2000/svg">
<path d="M20.9384 27.4831C18.4496 29.1889 17.0803 30.1844 14.7208 32.3204C13.2757 30.8021 12.3254 29.8449 10.2764 27.876C14.3248 23.2927 16.6896 21.0683 20.9384 17.2139C19.4679 15.8104 18.492 14.8368 16.4617 12.7686C14.4386 15.1261 13.2523 16.3383 10.9856 18.2446" stroke="url(#paint0_linear_1225_937)" stroke-width="3.86919"/>
<path d="M7.20559 24.9552C4.70277 22.6145 2.5 19.6807 2.5 15.2237C2.5 7.88271 8.45107 1.93164 15.7921 1.93164C23.1331 1.93164 28.7139 7.82804 28.7139 14.9523C28.7139 19.0525 26.8987 22.8754 22.86 25.9599" stroke="#FF7C33" stroke-width="3.86919"/>
<defs>
<linearGradient id="paint0_linear_1225_937" x1="15.6074" y1="23.1206" x2="15.6074" y2="32.3204" gradientUnits="userSpaceOnUse">
<stop stop-color="#FF7C33"/>
<stop offset="1" stop-color="#992E00"/>
</linearGradient>
</defs>
</svg>
