<svg width="101" height="36" viewBox="0 0 101 36" fill="none" xmlns="http://www.w3.org/2000/svg">
<path d="M20.9355 27.4831C18.4467 29.1889 17.0774 30.1844 14.7178 32.3204C13.2728 30.8021 12.3225 29.8449 10.2734 27.876C14.3219 23.2927 16.6866 21.0683 20.9355 17.2139C19.465 15.8104 18.489 14.8368 16.4588 12.7686C14.4357 15.1261 13.2493 16.3383 10.9827 18.2446" stroke="url(#paint0_linear_114_1649)" stroke-width="3.86919"/>
<path d="M7.20559 24.9552C4.70277 22.6145 2.5 19.6807 2.5 15.2237C2.5 7.88271 8.45107 1.93164 15.7921 1.93164C23.1331 1.93164 28.7139 7.82804 28.7139 14.9523C28.7139 19.0525 26.8987 22.8754 22.86 25.9599" stroke="#FF7C33" stroke-width="3.86919"/>
<path d="M37.4115 24V21.7396L45.4992 11.744V11.6818H37.9299V9.17257H49.0661V11.6818L41.2479 21.3871V21.4493H49.2112V24H37.4115ZM50.7453 24V13.3616H53.5656V24H50.7453ZM50.7453 11.7026V9.17257H53.5656V11.7026H50.7453ZM55.3829 27.4839V13.3616H58.0996V14.6888H58.1618C58.9498 13.6104 59.9936 13.0712 61.2932 13.0712C62.6895 13.0712 63.8093 13.5897 64.6527 14.6266C65.496 15.6635 65.9177 17.0183 65.9177 18.6912C65.9177 20.4055 65.496 21.7742 64.6527 22.7972C63.8093 23.8064 62.6964 24.3111 61.3139 24.3111C59.9314 24.3111 58.9083 23.8064 58.2447 22.7972H58.2033V27.4839H55.3829ZM60.7125 21.9677C61.4314 21.9677 61.9983 21.6843 62.413 21.1175C62.8416 20.5506 63.0559 19.7695 63.0559 18.7741C63.0559 17.7096 62.8554 16.8732 62.4545 16.2648C62.0536 15.6565 61.4383 15.3524 60.6088 15.3524C59.7655 15.3524 59.1434 15.6704 58.7424 16.3063C58.3415 16.9285 58.141 17.751 58.141 18.7741C58.141 19.7557 58.3622 20.5368 58.8047 21.1175C59.2471 21.6843 59.883 21.9677 60.7125 21.9677ZM74.2395 24L71.2532 19.1474L70.0297 20.4124V24H67.2301V9.17257H70.0297V17.3847L73.804 13.3616H77.1842L73.2648 17.4054L77.6612 24H74.2395ZM86.8634 22.7143C85.8265 23.7788 84.4924 24.3111 82.861 24.3111C81.2296 24.3111 79.8955 23.7788 78.8586 22.7143C77.8217 21.6359 77.3033 20.2949 77.3033 18.6912C77.3033 17.0874 77.8217 15.7533 78.8586 14.6888C79.8955 13.6104 81.2296 13.0712 82.861 13.0712C84.4924 13.0712 85.8265 13.6104 86.8634 14.6888C87.9003 15.7533 88.4187 17.0874 88.4187 18.6912C88.4187 20.2949 87.9003 21.6359 86.8634 22.7143ZM82.861 22.1543C83.7043 22.1543 84.361 21.8433 84.8311 21.2212C85.315 20.5852 85.5569 19.7419 85.5569 18.6912C85.5569 17.6404 85.315 16.7971 84.8311 16.1612C84.361 15.5252 83.7043 15.2072 82.861 15.2072C82.0038 15.2072 81.3402 15.5252 80.8702 16.1612C80.4001 16.7833 80.1651 17.6266 80.1651 18.6912C80.1651 19.7419 80.4001 20.5852 80.8702 21.2212C81.3402 21.8433 82.0038 22.1543 82.861 22.1543ZM93.7113 24.3111C92.3703 24.3111 91.285 23.8064 90.4555 22.7972C89.626 21.7742 89.2113 20.4055 89.2113 18.6912C89.2113 17.0321 89.6329 15.6842 90.4763 14.6473C91.3334 13.5966 92.4256 13.0712 93.7528 13.0712C95.08 13.0712 96.0823 13.5966 96.7598 14.6473H96.822V9.17257H99.6423V24H96.9257V22.6106H96.8842C96.1929 23.7442 95.1353 24.3111 93.7113 24.3111ZM94.3335 21.947C95.163 21.947 95.792 21.6636 96.2206 21.0967C96.663 20.5299 96.8842 19.7488 96.8842 18.7534C96.8842 16.4861 96.0616 15.3524 94.4164 15.3524C93.656 15.3524 93.0754 15.6565 92.6745 16.2648C92.2735 16.8732 92.0731 17.6819 92.0731 18.6912C92.0731 19.728 92.2666 20.5299 92.6537 21.0967C93.0546 21.6636 93.6146 21.947 94.3335 21.947Z" fill="#1E1E1E"/>
<defs>
<linearGradient id="paint0_linear_114_1649" x1="15.6045" y1="23.1206" x2="15.6045" y2="32.3204" gradientUnits="userSpaceOnUse">
<stop stop-color="#FF7C33"/>
<stop offset="1" stop-color="#992E00"/>
</linearGradient>
</defs>
</svg>
