<svg width="128" height="46" viewBox="0 0 128 46" fill="none" xmlns="http://www.w3.org/2000/svg">
<path d="M26.6013 35.6866C23.4385 37.8543 21.6984 39.1194 18.7 41.8338C16.8636 39.9043 15.656 38.6879 13.052 36.1859C18.1968 30.3614 21.2019 27.5346 26.6013 22.6366C24.7327 20.853 23.4924 19.6157 20.9123 16.9874C18.3414 19.9833 16.8338 21.5238 13.9534 23.9463" stroke="white" stroke-width="4.91696"/>
<path d="M9.15094 32.4742C5.97036 29.4996 3.17108 25.7714 3.17108 20.1074C3.17108 10.7784 10.7337 3.21582 20.0627 3.21582C29.3916 3.21582 36.4836 10.709 36.4836 19.7625C36.4836 24.973 34.1769 29.8311 29.0445 33.7509" stroke="white" stroke-width="4.91696"/>
<path d="M47.5405 31V28.1275L57.8183 15.4251V15.3461H48.1993V12.1573H62.3511V15.3461L52.4158 27.6795V27.7585H62.5355V31H47.5405ZM64.4851 31V17.4807H68.0691V31H64.4851ZM64.4851 15.3724V12.1573H68.0691V15.3724H64.4851ZM70.3786 35.4274V17.4807H73.8309V19.1673H73.9099C74.9113 17.7969 76.2378 17.1118 77.8893 17.1118C79.6637 17.1118 81.0868 17.7706 82.1585 19.0883C83.2302 20.4059 83.7661 22.1277 83.7661 24.2535C83.7661 26.4321 83.2302 28.1714 82.1585 29.4715C81.0868 30.754 79.6725 31.3953 77.9156 31.3953C76.1587 31.3953 74.8586 30.754 74.0153 29.4715H73.9626V35.4274H70.3786ZM77.1514 28.4174C78.065 28.4174 78.7853 28.0572 79.3124 27.3369C79.857 26.6166 80.1293 25.6239 80.1293 24.3589C80.1293 23.0061 79.8746 21.9432 79.3651 21.1702C78.8556 20.3971 78.0738 20.0106 77.0196 20.0106C75.9479 20.0106 75.1573 20.4147 74.6478 21.2229C74.1383 22.0135 73.8836 23.0588 73.8836 24.3589C73.8836 25.6063 74.1647 26.599 74.7269 27.3369C75.2891 28.0572 76.0972 28.4174 77.1514 28.4174ZM94.3414 31L90.5465 24.8333L88.9917 26.4409V31H85.434V12.1573H88.9917V22.5933L93.788 17.4807H98.0836L93.1028 22.6196L98.6897 31H94.3414ZM110.384 29.3661C109.066 30.7189 107.371 31.3953 105.298 31.3953C103.225 31.3953 101.529 30.7189 100.211 29.3661C98.8938 27.9957 98.2349 26.2915 98.2349 24.2535C98.2349 22.2155 98.8938 20.5201 100.211 19.1673C101.529 17.7969 103.225 17.1118 105.298 17.1118C107.371 17.1118 109.066 17.7969 110.384 19.1673C111.702 20.5201 112.36 22.2155 112.36 24.2535C112.36 26.2915 111.702 27.9957 110.384 29.3661ZM105.298 28.6545C106.369 28.6545 107.204 28.2592 107.801 27.4686C108.416 26.6605 108.724 25.5888 108.724 24.2535C108.724 22.9183 108.416 21.8466 107.801 21.0384C107.204 20.2302 106.369 19.8262 105.298 19.8262C104.208 19.8262 103.365 20.2302 102.768 21.0384C102.17 21.829 101.872 22.9007 101.872 24.2535C101.872 25.5888 102.17 26.6605 102.768 27.4686C103.365 28.2592 104.208 28.6545 105.298 28.6545ZM119.086 31.3953C117.382 31.3953 116.003 30.754 114.949 29.4715C113.895 28.1714 113.368 26.4321 113.368 24.2535C113.368 22.1453 113.903 20.4323 114.975 19.1146C116.064 17.7794 117.452 17.1118 119.139 17.1118C120.826 17.1118 122.099 17.7794 122.96 19.1146H123.039V12.1573H126.623V31H123.171V29.2343H123.118C122.24 30.675 120.896 31.3953 119.086 31.3953ZM119.877 28.391C120.931 28.391 121.73 28.0309 122.275 27.3105C122.837 26.5902 123.118 25.5976 123.118 24.3326C123.118 21.4513 122.073 20.0106 119.982 20.0106C119.016 20.0106 118.278 20.3971 117.769 21.1702C117.259 21.9432 117.004 22.971 117.004 24.2535C117.004 25.5712 117.25 26.5902 117.742 27.3105C118.252 28.0309 118.963 28.391 119.877 28.391Z" fill="white"/>
</svg>
